<svg width="32" height="32" viewBox="0 0 32 32" fill="none" xmlns="http://www.w3.org/2000/svg">
<path d="M16.1645 29.9978C25.499 29.9978 30.1634 23.7303 30.1634 15.9989C30.1634 8.26751 25.499 2 16.1645 2C6.83008 2 2.16565 8.26751 2.16565 15.9989C2.16565 23.7303 6.83008 29.9978 16.1645 29.9978Z" fill="url(#paint0_radial_6890_5229)"/>
<path d="M16.1645 29.9978C25.499 29.9978 30.1634 23.7303 30.1634 15.9989C30.1634 8.26751 25.499 2 16.1645 2C6.83008 2 2.16565 8.26751 2.16565 15.9989C2.16565 23.7303 6.83008 29.9978 16.1645 29.9978Z" fill="url(#paint1_radial_6890_5229)"/>
<path d="M16.1645 29.9978C25.499 29.9978 30.1634 23.7303 30.1634 15.9989C30.1634 8.26751 25.499 2 16.1645 2C6.83008 2 2.16565 8.26751 2.16565 15.9989C2.16565 23.7303 6.83008 29.9978 16.1645 29.9978Z" fill="url(#paint2_radial_6890_5229)" fill-opacity="0.6"/>
<path d="M16.1645 29.9978C25.499 29.9978 30.1634 23.7303 30.1634 15.9989C30.1634 8.26751 25.499 2 16.1645 2C6.83008 2 2.16565 8.26751 2.16565 15.9989C2.16565 23.7303 6.83008 29.9978 16.1645 29.9978Z" fill="url(#paint3_radial_6890_5229)"/>
<path d="M16.1645 29.9978C25.499 29.9978 30.1634 23.7303 30.1634 15.9989C30.1634 8.26751 25.499 2 16.1645 2C6.83008 2 2.16565 8.26751 2.16565 15.9989C2.16565 23.7303 6.83008 29.9978 16.1645 29.9978Z" fill="url(#paint4_radial_6890_5229)"/>
<path d="M16.1645 29.9978C25.499 29.9978 30.1634 23.7303 30.1634 15.9989C30.1634 8.26751 25.499 2 16.1645 2C6.83008 2 2.16565 8.26751 2.16565 15.9989C2.16565 23.7303 6.83008 29.9978 16.1645 29.9978Z" fill="url(#paint5_radial_6890_5229)"/>
<path d="M16.1645 29.9978C25.499 29.9978 30.1634 23.7303 30.1634 15.9989C30.1634 8.26751 25.499 2 16.1645 2C6.83008 2 2.16565 8.26751 2.16565 15.9989C2.16565 23.7303 6.83008 29.9978 16.1645 29.9978Z" fill="url(#paint6_radial_6890_5229)"/>
<path d="M16.1645 29.9978C25.499 29.9978 30.1634 23.7303 30.1634 15.9989C30.1634 8.26751 25.499 2 16.1645 2C6.83008 2 2.16565 8.26751 2.16565 15.9989C2.16565 23.7303 6.83008 29.9978 16.1645 29.9978Z" fill="url(#paint7_radial_6890_5229)"/>
<path d="M16.1645 29.9978C25.499 29.9978 30.1634 23.7303 30.1634 15.9989C30.1634 8.26751 25.499 2 16.1645 2C6.83008 2 2.16565 8.26751 2.16565 15.9989C2.16565 23.7303 6.83008 29.9978 16.1645 29.9978Z" fill="url(#paint8_radial_6890_5229)"/>
<path d="M16.1645 29.9978C25.499 29.9978 30.1634 23.7303 30.1634 15.9989C30.1634 8.26751 25.499 2 16.1645 2C6.83008 2 2.16565 8.26751 2.16565 15.9989C2.16565 23.7303 6.83008 29.9978 16.1645 29.9978Z" fill="url(#paint9_radial_6890_5229)"/>
<path d="M16.1645 29.9978C25.499 29.9978 30.1634 23.7303 30.1634 15.9989C30.1634 8.26751 25.499 2 16.1645 2C6.83008 2 2.16565 8.26751 2.16565 15.9989C2.16565 23.7303 6.83008 29.9978 16.1645 29.9978Z" fill="url(#paint10_radial_6890_5229)"/>
<path d="M16.1645 29.9978C25.499 29.9978 30.1634 23.7303 30.1634 15.9989C30.1634 8.26751 25.499 2 16.1645 2C6.83008 2 2.16565 8.26751 2.16565 15.9989C2.16565 23.7303 6.83008 29.9978 16.1645 29.9978Z" fill="url(#paint11_radial_6890_5229)"/>
<path d="M16.1645 29.9978C25.499 29.9978 30.1634 23.7303 30.1634 15.9989C30.1634 8.26751 25.499 2 16.1645 2C6.83008 2 2.16565 8.26751 2.16565 15.9989C2.16565 23.7303 6.83008 29.9978 16.1645 29.9978Z" fill="url(#paint12_radial_6890_5229)"/>
<path d="M16.1645 29.9978C25.499 29.9978 30.1634 23.7303 30.1634 15.9989C30.1634 8.26751 25.499 2 16.1645 2C6.83008 2 2.16565 8.26751 2.16565 15.9989C2.16565 23.7303 6.83008 29.9978 16.1645 29.9978Z" fill="url(#paint13_radial_6890_5229)"/>
<path d="M16.1645 29.9978C25.499 29.9978 30.1634 23.7303 30.1634 15.9989C30.1634 8.26751 25.499 2 16.1645 2C6.83008 2 2.16565 8.26751 2.16565 15.9989C2.16565 23.7303 6.83008 29.9978 16.1645 29.9978Z" fill="url(#paint14_radial_6890_5229)"/>
<path d="M16.1645 29.9978C25.499 29.9978 30.1634 23.7303 30.1634 15.9989C30.1634 8.26751 25.499 2 16.1645 2C6.83008 2 2.16565 8.26751 2.16565 15.9989C2.16565 23.7303 6.83008 29.9978 16.1645 29.9978Z" fill="url(#paint15_radial_6890_5229)"/>
<path d="M16.1645 29.9978C25.499 29.9978 30.1634 23.7303 30.1634 15.9989C30.1634 8.26751 25.499 2 16.1645 2C6.83008 2 2.16565 8.26751 2.16565 15.9989C2.16565 23.7303 6.83008 29.9978 16.1645 29.9978Z" fill="url(#paint16_radial_6890_5229)"/>
<path d="M16.1645 29.9978C25.499 29.9978 30.1634 23.7303 30.1634 15.9989C30.1634 8.26751 25.499 2 16.1645 2C6.83008 2 2.16565 8.26751 2.16565 15.9989C2.16565 23.7303 6.83008 29.9978 16.1645 29.9978Z" fill="url(#paint17_radial_6890_5229)"/>
<path d="M16.1645 29.9978C25.499 29.9978 30.1634 23.7303 30.1634 15.9989C30.1634 8.26751 25.499 2 16.1645 2C6.83008 2 2.16565 8.26751 2.16565 15.9989C2.16565 23.7303 6.83008 29.9978 16.1645 29.9978Z" fill="url(#paint18_radial_6890_5229)"/>
<path d="M16.1645 29.9978C25.499 29.9978 30.1634 23.7303 30.1634 15.9989C30.1634 8.26751 25.499 2 16.1645 2C6.83008 2 2.16565 8.26751 2.16565 15.9989C2.16565 23.7303 6.83008 29.9978 16.1645 29.9978Z" fill="url(#paint19_radial_6890_5229)"/>
<ellipse cx="16.1656" cy="20.9463" rx="5.76562" ry="5.75781" fill="url(#paint20_radial_6890_5229)"/>
<path fill-rule="evenodd" clip-rule="evenodd" d="M19.6154 11.2166C21.3231 10.2568 23.3631 10.6471 24.5904 12.2876C24.9212 12.7299 25.5479 12.8202 25.9901 12.4893C26.4324 12.1585 26.5227 11.5318 26.1918 11.0896C24.3566 8.63635 21.2091 8.02666 18.6355 9.47312C18.1541 9.74372 17.9831 10.3534 18.2537 10.8348C18.5243 11.3163 19.134 11.4872 19.6154 11.2166Z" fill="url(#paint21_radial_6890_5229)"/>
<path fill-rule="evenodd" clip-rule="evenodd" d="M19.6154 11.2166C21.3231 10.2568 23.3631 10.6471 24.5904 12.2876C24.9212 12.7299 25.5479 12.8202 25.9901 12.4893C26.4324 12.1585 26.5227 11.5318 26.1918 11.0896C24.3566 8.63635 21.2091 8.02666 18.6355 9.47312C18.1541 9.74372 17.9831 10.3534 18.2537 10.8348C18.5243 11.3163 19.134 11.4872 19.6154 11.2166Z" fill="url(#paint22_radial_6890_5229)"/>
<path fill-rule="evenodd" clip-rule="evenodd" d="M19.6154 11.2166C21.3231 10.2568 23.3631 10.6471 24.5904 12.2876C24.9212 12.7299 25.5479 12.8202 25.9901 12.4893C26.4324 12.1585 26.5227 11.5318 26.1918 11.0896C24.3566 8.63635 21.2091 8.02666 18.6355 9.47312C18.1541 9.74372 17.9831 10.3534 18.2537 10.8348C18.5243 11.3163 19.134 11.4872 19.6154 11.2166Z" fill="url(#paint23_radial_6890_5229)"/>
<path fill-rule="evenodd" clip-rule="evenodd" d="M13.2381 11.1731C11.5088 10.2011 9.44112 10.5969 8.19867 12.2577C7.88438 12.6779 7.28902 12.7637 6.8689 12.4494C6.44878 12.1351 6.36299 11.5397 6.67728 11.1196C8.49732 8.68668 11.6171 8.08246 14.1691 9.51676C14.6264 9.77383 14.7888 10.353 14.5318 10.8104C14.2747 11.2678 13.6955 11.4301 13.2381 11.1731Z" fill="url(#paint24_radial_6890_5229)"/>
<path fill-rule="evenodd" clip-rule="evenodd" d="M13.2381 11.1731C11.5088 10.2011 9.44112 10.5969 8.19867 12.2577C7.88438 12.6779 7.28902 12.7637 6.8689 12.4494C6.44878 12.1351 6.36299 11.5397 6.67728 11.1196C8.49732 8.68668 11.6171 8.08246 14.1691 9.51676C14.6264 9.77383 14.7888 10.353 14.5318 10.8104C14.2747 11.2678 13.6955 11.4301 13.2381 11.1731Z" fill="url(#paint25_radial_6890_5229)"/>
<path fill-rule="evenodd" clip-rule="evenodd" d="M13.2381 11.1731C11.5088 10.2011 9.44112 10.5969 8.19867 12.2577C7.88438 12.6779 7.28902 12.7637 6.8689 12.4494C6.44878 12.1351 6.36299 11.5397 6.67728 11.1196C8.49732 8.68668 11.6171 8.08246 14.1691 9.51676C14.6264 9.77383 14.7888 10.353 14.5318 10.8104C14.2747 11.2678 13.6955 11.4301 13.2381 11.1731Z" fill="url(#paint26_radial_6890_5229)"/>
<path d="M15.8259 16.732C15.3383 16.2002 14.4975 16.153 13.9479 16.6266L10.5151 19.5846L10.7821 18.5481C10.9673 17.8289 10.5162 17.1014 9.77448 16.9231C9.02876 16.7439 8.2741 17.1881 8.09356 17.9125L7.36239 20.8463L6.43915 23.1803C6.42217 23.2233 6.40733 23.2667 6.39462 23.3105C6.06112 23.9794 5.88302 24.7363 5.90575 25.5338C5.98009 28.142 8.17482 30.1956 10.8078 30.1206C11.9661 30.0876 13.0163 29.6481 13.823 28.9441L19.0158 25.0142C19.6248 24.5534 19.7253 23.6982 19.2386 23.1183C19.0266 22.8657 18.739 22.708 18.4329 22.6508L18.925 22.2268C19.5001 21.7312 19.5526 20.8784 19.0423 20.3218C18.8255 20.0854 18.542 19.9405 18.2435 19.89L18.3946 19.7598C18.9697 19.2642 19.0222 18.4114 18.512 17.8548C18.0017 17.2983 17.1218 17.2489 16.5467 17.7445L15.986 18.2276C16.2616 17.7601 16.2147 17.156 15.8259 16.732Z" fill="url(#paint27_radial_6890_5229)"/>
<path d="M15.8259 16.732C15.3383 16.2002 14.4975 16.153 13.9479 16.6266L10.5151 19.5846L10.7821 18.5481C10.9673 17.8289 10.5162 17.1014 9.77448 16.9231C9.02876 16.7439 8.2741 17.1881 8.09356 17.9125L7.36239 20.8463L6.43915 23.1803C6.42217 23.2233 6.40733 23.2667 6.39462 23.3105C6.06112 23.9794 5.88302 24.7363 5.90575 25.5338C5.98009 28.142 8.17482 30.1956 10.8078 30.1206C11.9661 30.0876 13.0163 29.6481 13.823 28.9441L19.0158 25.0142C19.6248 24.5534 19.7253 23.6982 19.2386 23.1183C19.0266 22.8657 18.739 22.708 18.4329 22.6508L18.925 22.2268C19.5001 21.7312 19.5526 20.8784 19.0423 20.3218C18.8255 20.0854 18.542 19.9405 18.2435 19.89L18.3946 19.7598C18.9697 19.2642 19.0222 18.4114 18.512 17.8548C18.0017 17.2983 17.1218 17.2489 16.5467 17.7445L15.986 18.2276C16.2616 17.7601 16.2147 17.156 15.8259 16.732Z" fill="url(#paint28_radial_6890_5229)"/>
<path d="M15.8259 16.732C15.3383 16.2002 14.4975 16.153 13.9479 16.6266L10.5151 19.5846L10.7821 18.5481C10.9673 17.8289 10.5162 17.1014 9.77448 16.9231C9.02876 16.7439 8.2741 17.1881 8.09356 17.9125L7.36239 20.8463L6.43915 23.1803C6.42217 23.2233 6.40733 23.2667 6.39462 23.3105C6.06112 23.9794 5.88302 24.7363 5.90575 25.5338C5.98009 28.142 8.17482 30.1956 10.8078 30.1206C11.9661 30.0876 13.0163 29.6481 13.823 28.9441L19.0158 25.0142C19.6248 24.5534 19.7253 23.6982 19.2386 23.1183C19.0266 22.8657 18.739 22.708 18.4329 22.6508L18.925 22.2268C19.5001 21.7312 19.5526 20.8784 19.0423 20.3218C18.8255 20.0854 18.542 19.9405 18.2435 19.89L18.3946 19.7598C18.9697 19.2642 19.0222 18.4114 18.512 17.8548C18.0017 17.2983 17.1218 17.2489 16.5467 17.7445L15.986 18.2276C16.2616 17.7601 16.2147 17.156 15.8259 16.732Z" fill="url(#paint29_radial_6890_5229)"/>
<path d="M15.8259 16.732C15.3383 16.2002 14.4975 16.153 13.9479 16.6266L10.5151 19.5846L10.7821 18.5481C10.9673 17.8289 10.5162 17.1014 9.77448 16.9231C9.02876 16.7439 8.2741 17.1881 8.09356 17.9125L7.36239 20.8463L6.43915 23.1803C6.42217 23.2233 6.40733 23.2667 6.39462 23.3105C6.06112 23.9794 5.88302 24.7363 5.90575 25.5338C5.98009 28.142 8.17482 30.1956 10.8078 30.1206C11.9661 30.0876 13.0163 29.6481 13.823 28.9441L19.0158 25.0142C19.6248 24.5534 19.7253 23.6982 19.2386 23.1183C19.0266 22.8657 18.739 22.708 18.4329 22.6508L18.925 22.2268C19.5001 21.7312 19.5526 20.8784 19.0423 20.3218C18.8255 20.0854 18.542 19.9405 18.2435 19.89L18.3946 19.7598C18.9697 19.2642 19.0222 18.4114 18.512 17.8548C18.0017 17.2983 17.1218 17.2489 16.5467 17.7445L15.986 18.2276C16.2616 17.7601 16.2147 17.156 15.8259 16.732Z" fill="url(#paint30_radial_6890_5229)"/>
<path d="M15.8259 16.732C15.3383 16.2002 14.4975 16.153 13.9479 16.6266L10.5151 19.5846L10.7821 18.5481C10.9673 17.8289 10.5162 17.1014 9.77448 16.9231C9.02876 16.7439 8.2741 17.1881 8.09356 17.9125L7.36239 20.8463L6.43915 23.1803C6.42217 23.2233 6.40733 23.2667 6.39462 23.3105C6.06112 23.9794 5.88302 24.7363 5.90575 25.5338C5.98009 28.142 8.17482 30.1956 10.8078 30.1206C11.9661 30.0876 13.0163 29.6481 13.823 28.9441L19.0158 25.0142C19.6248 24.5534 19.7253 23.6982 19.2386 23.1183C19.0266 22.8657 18.739 22.708 18.4329 22.6508L18.925 22.2268C19.5001 21.7312 19.5526 20.8784 19.0423 20.3218C18.8255 20.0854 18.542 19.9405 18.2435 19.89L18.3946 19.7598C18.9697 19.2642 19.0222 18.4114 18.512 17.8548C18.0017 17.2983 17.1218 17.2489 16.5467 17.7445L15.986 18.2276C16.2616 17.7601 16.2147 17.156 15.8259 16.732Z" fill="url(#paint31_radial_6890_5229)"/>
<path d="M15.8259 16.732C15.3383 16.2002 14.4975 16.153 13.9479 16.6266L10.5151 19.5846L10.7821 18.5481C10.9673 17.8289 10.5162 17.1014 9.77448 16.9231C9.02876 16.7439 8.2741 17.1881 8.09356 17.9125L7.36239 20.8463L6.43915 23.1803C6.42217 23.2233 6.40733 23.2667 6.39462 23.3105C6.06112 23.9794 5.88302 24.7363 5.90575 25.5338C5.98009 28.142 8.17482 30.1956 10.8078 30.1206C11.9661 30.0876 13.0163 29.6481 13.823 28.9441L19.0158 25.0142C19.6248 24.5534 19.7253 23.6982 19.2386 23.1183C19.0266 22.8657 18.739 22.708 18.4329 22.6508L18.925 22.2268C19.5001 21.7312 19.5526 20.8784 19.0423 20.3218C18.8255 20.0854 18.542 19.9405 18.2435 19.89L18.3946 19.7598C18.9697 19.2642 19.0222 18.4114 18.512 17.8548C18.0017 17.2983 17.1218 17.2489 16.5467 17.7445L15.986 18.2276C16.2616 17.7601 16.2147 17.156 15.8259 16.732Z" fill="url(#paint32_linear_6890_5229)"/>
<path d="M15.8259 16.732C15.3383 16.2002 14.4975 16.153 13.9479 16.6266L10.5151 19.5846L10.7821 18.5481C10.9673 17.8289 10.5162 17.1014 9.77448 16.9231C9.02876 16.7439 8.2741 17.1881 8.09356 17.9125L7.36239 20.8463L6.43915 23.1803C6.42217 23.2233 6.40733 23.2667 6.39462 23.3105C6.06112 23.9794 5.88302 24.7363 5.90575 25.5338C5.98009 28.142 8.17482 30.1956 10.8078 30.1206C11.9661 30.0876 13.0163 29.6481 13.823 28.9441L19.0158 25.0142C19.6248 24.5534 19.7253 23.6982 19.2386 23.1183C19.0266 22.8657 18.739 22.708 18.4329 22.6508L18.925 22.2268C19.5001 21.7312 19.5526 20.8784 19.0423 20.3218C18.8255 20.0854 18.542 19.9405 18.2435 19.89L18.3946 19.7598C18.9697 19.2642 19.0222 18.4114 18.512 17.8548C18.0017 17.2983 17.1218 17.2489 16.5467 17.7445L15.986 18.2276C16.2616 17.7601 16.2147 17.156 15.8259 16.732Z" fill="url(#paint33_linear_6890_5229)"/>
<path d="M15.8259 16.732C15.3383 16.2002 14.4975 16.153 13.9479 16.6266L10.5151 19.5846L10.7821 18.5481C10.9673 17.8289 10.5162 17.1014 9.77448 16.9231C9.02876 16.7439 8.2741 17.1881 8.09356 17.9125L7.36239 20.8463L6.43915 23.1803C6.42217 23.2233 6.40733 23.2667 6.39462 23.3105C6.06112 23.9794 5.88302 24.7363 5.90575 25.5338C5.98009 28.142 8.17482 30.1956 10.8078 30.1206C11.9661 30.0876 13.0163 29.6481 13.823 28.9441L19.0158 25.0142C19.6248 24.5534 19.7253 23.6982 19.2386 23.1183C19.0266 22.8657 18.739 22.708 18.4329 22.6508L18.925 22.2268C19.5001 21.7312 19.5526 20.8784 19.0423 20.3218C18.8255 20.0854 18.542 19.9405 18.2435 19.89L18.3946 19.7598C18.9697 19.2642 19.0222 18.4114 18.512 17.8548C18.0017 17.2983 17.1218 17.2489 16.5467 17.7445L15.986 18.2276C16.2616 17.7601 16.2147 17.156 15.8259 16.732Z" fill="url(#paint34_linear_6890_5229)"/>
<path d="M15.8259 16.732C15.3383 16.2002 14.4975 16.153 13.9479 16.6266L10.5151 19.5846L10.7821 18.5481C10.9673 17.8289 10.5162 17.1014 9.77448 16.9231C9.02876 16.7439 8.2741 17.1881 8.09356 17.9125L7.36239 20.8463L6.43915 23.1803C6.42217 23.2233 6.40733 23.2667 6.39462 23.3105C6.06112 23.9794 5.88302 24.7363 5.90575 25.5338C5.98009 28.142 8.17482 30.1956 10.8078 30.1206C11.9661 30.0876 13.0163 29.6481 13.823 28.9441L19.0158 25.0142C19.6248 24.5534 19.7253 23.6982 19.2386 23.1183C19.0266 22.8657 18.739 22.708 18.4329 22.6508L18.925 22.2268C19.5001 21.7312 19.5526 20.8784 19.0423 20.3218C18.8255 20.0854 18.542 19.9405 18.2435 19.89L18.3946 19.7598C18.9697 19.2642 19.0222 18.4114 18.512 17.8548C18.0017 17.2983 17.1218 17.2489 16.5467 17.7445L15.986 18.2276C16.2616 17.7601 16.2147 17.156 15.8259 16.732Z" fill="url(#paint35_radial_6890_5229)"/>
<path d="M15.8259 16.732C15.3383 16.2002 14.4975 16.153 13.9479 16.6266L10.5151 19.5846L10.7821 18.5481C10.9673 17.8289 10.5162 17.1014 9.77448 16.9231C9.02876 16.7439 8.2741 17.1881 8.09356 17.9125L7.36239 20.8463L6.43915 23.1803C6.42217 23.2233 6.40733 23.2667 6.39462 23.3105C6.06112 23.9794 5.88302 24.7363 5.90575 25.5338C5.98009 28.142 8.17482 30.1956 10.8078 30.1206C11.9661 30.0876 13.0163 29.6481 13.823 28.9441L19.0158 25.0142C19.6248 24.5534 19.7253 23.6982 19.2386 23.1183C19.0266 22.8657 18.739 22.708 18.4329 22.6508L18.925 22.2268C19.5001 21.7312 19.5526 20.8784 19.0423 20.3218C18.8255 20.0854 18.542 19.9405 18.2435 19.89L18.3946 19.7598C18.9697 19.2642 19.0222 18.4114 18.512 17.8548C18.0017 17.2983 17.1218 17.2489 16.5467 17.7445L15.986 18.2276C16.2616 17.7601 16.2147 17.156 15.8259 16.732Z" fill="url(#paint36_radial_6890_5229)"/>
<path d="M15.8259 16.732C15.3383 16.2002 14.4975 16.153 13.9479 16.6266L10.5151 19.5846L10.7821 18.5481C10.9673 17.8289 10.5162 17.1014 9.77448 16.9231C9.02876 16.7439 8.2741 17.1881 8.09356 17.9125L7.36239 20.8463L6.43915 23.1803C6.42217 23.2233 6.40733 23.2667 6.39462 23.3105C6.06112 23.9794 5.88302 24.7363 5.90575 25.5338C5.98009 28.142 8.17482 30.1956 10.8078 30.1206C11.9661 30.0876 13.0163 29.6481 13.823 28.9441L19.0158 25.0142C19.6248 24.5534 19.7253 23.6982 19.2386 23.1183C19.0266 22.8657 18.739 22.708 18.4329 22.6508L18.925 22.2268C19.5001 21.7312 19.5526 20.8784 19.0423 20.3218C18.8255 20.0854 18.542 19.9405 18.2435 19.89L18.3946 19.7598C18.9697 19.2642 19.0222 18.4114 18.512 17.8548C18.0017 17.2983 17.1218 17.2489 16.5467 17.7445L15.986 18.2276C16.2616 17.7601 16.2147 17.156 15.8259 16.732Z" fill="url(#paint37_radial_6890_5229)"/>
<path d="M15.8259 16.732C15.3383 16.2002 14.4975 16.153 13.9479 16.6266L10.5151 19.5846L10.7821 18.5481C10.9673 17.8289 10.5162 17.1014 9.77448 16.9231C9.02876 16.7439 8.2741 17.1881 8.09356 17.9125L7.36239 20.8463L6.43915 23.1803C6.42217 23.2233 6.40733 23.2667 6.39462 23.3105C6.06112 23.9794 5.88302 24.7363 5.90575 25.5338C5.98009 28.142 8.17482 30.1956 10.8078 30.1206C11.9661 30.0876 13.0163 29.6481 13.823 28.9441L19.0158 25.0142C19.6248 24.5534 19.7253 23.6982 19.2386 23.1183C19.0266 22.8657 18.739 22.708 18.4329 22.6508L18.925 22.2268C19.5001 21.7312 19.5526 20.8784 19.0423 20.3218C18.8255 20.0854 18.542 19.9405 18.2435 19.89L18.3946 19.7598C18.9697 19.2642 19.0222 18.4114 18.512 17.8548C18.0017 17.2983 17.1218 17.2489 16.5467 17.7445L15.986 18.2276C16.2616 17.7601 16.2147 17.156 15.8259 16.732Z" fill="url(#paint38_radial_6890_5229)"/>
<path d="M15.8259 16.732C15.3383 16.2002 14.4975 16.153 13.9479 16.6266L10.5151 19.5846L10.7821 18.5481C10.9673 17.8289 10.5162 17.1014 9.77448 16.9231C9.02876 16.7439 8.2741 17.1881 8.09356 17.9125L7.36239 20.8463L6.43915 23.1803C6.42217 23.2233 6.40733 23.2667 6.39462 23.3105C6.06112 23.9794 5.88302 24.7363 5.90575 25.5338C5.98009 28.142 8.17482 30.1956 10.8078 30.1206C11.9661 30.0876 13.0163 29.6481 13.823 28.9441L19.0158 25.0142C19.6248 24.5534 19.7253 23.6982 19.2386 23.1183C19.0266 22.8657 18.739 22.708 18.4329 22.6508L18.925 22.2268C19.5001 21.7312 19.5526 20.8784 19.0423 20.3218C18.8255 20.0854 18.542 19.9405 18.2435 19.89L18.3946 19.7598C18.9697 19.2642 19.0222 18.4114 18.512 17.8548C18.0017 17.2983 17.1218 17.2489 16.5467 17.7445L15.986 18.2276C16.2616 17.7601 16.2147 17.156 15.8259 16.732Z" fill="url(#paint39_radial_6890_5229)"/>
<path d="M15.8259 16.732C15.3383 16.2002 14.4975 16.153 13.9479 16.6266L10.5151 19.5846L10.7821 18.5481C10.9673 17.8289 10.5162 17.1014 9.77448 16.9231C9.02876 16.7439 8.2741 17.1881 8.09356 17.9125L7.36239 20.8463L6.43915 23.1803C6.42217 23.2233 6.40733 23.2667 6.39462 23.3105C6.06112 23.9794 5.88302 24.7363 5.90575 25.5338C5.98009 28.142 8.17482 30.1956 10.8078 30.1206C11.9661 30.0876 13.0163 29.6481 13.823 28.9441L19.0158 25.0142C19.6248 24.5534 19.7253 23.6982 19.2386 23.1183C19.0266 22.8657 18.739 22.708 18.4329 22.6508L18.925 22.2268C19.5001 21.7312 19.5526 20.8784 19.0423 20.3218C18.8255 20.0854 18.542 19.9405 18.2435 19.89L18.3946 19.7598C18.9697 19.2642 19.0222 18.4114 18.512 17.8548C18.0017 17.2983 17.1218 17.2489 16.5467 17.7445L15.986 18.2276C16.2616 17.7601 16.2147 17.156 15.8259 16.732Z" fill="url(#paint40_radial_6890_5229)"/>
<path d="M13.9223 16.6399C14.4718 16.1604 15.3204 16.2077 15.8134 16.7453C16.2974 17.2732 16.2582 18.0782 15.7252 18.556L12.9119 21.0777C11.8722 22.0096 10.1804 21.3148 10.1409 19.9398L13.9223 16.6399Z" fill="url(#paint41_radial_6890_5229)"/>
<path d="M13.9223 16.6399C14.4718 16.1604 15.3204 16.2077 15.8134 16.7453C16.2974 17.2732 16.2582 18.0782 15.7252 18.556L12.9119 21.0777C11.8722 22.0096 10.1804 21.3148 10.1409 19.9398L13.9223 16.6399Z" fill="url(#paint42_linear_6890_5229)"/>
<path d="M13.9223 16.6399C14.4718 16.1604 15.3204 16.2077 15.8134 16.7453C16.2974 17.2732 16.2582 18.0782 15.7252 18.556L12.9119 21.0777C11.8722 22.0096 10.1804 21.3148 10.1409 19.9398L13.9223 16.6399Z" fill="url(#paint43_radial_6890_5229)"/>
<path d="M12.583 21.3707C12.289 21.861 12.3362 22.498 12.7455 22.9443C13.2558 23.5008 14.1356 23.5503 14.7108 23.0547L18.3707 19.7606C18.9458 19.265 18.9984 18.4121 18.4881 17.8556C17.9778 17.2991 17.0979 17.2497 16.5228 17.7453L15.9949 18.2201C15.8934 18.3062 15.7189 18.4816 15.6075 18.5775L12.583 21.3707Z" fill="url(#paint44_radial_6890_5229)"/>
<path d="M12.583 21.3707C12.289 21.861 12.3362 22.498 12.7455 22.9443C13.2558 23.5008 14.1356 23.5503 14.7108 23.0547L18.3707 19.7606C18.9458 19.265 18.9984 18.4121 18.4881 17.8556C17.9778 17.2991 17.0979 17.2497 16.5228 17.7453L15.9949 18.2201C15.8934 18.3062 15.7189 18.4816 15.6075 18.5775L12.583 21.3707Z" fill="url(#paint45_radial_6890_5229)"/>
<path d="M12.583 21.3707C12.289 21.861 12.3362 22.498 12.7455 22.9443C13.2558 23.5008 14.1356 23.5503 14.7108 23.0547L18.3707 19.7606C18.9458 19.265 18.9984 18.4121 18.4881 17.8556C17.9778 17.2991 17.0979 17.2497 16.5228 17.7453L15.9949 18.2201C15.8934 18.3062 15.7189 18.4816 15.6075 18.5775L12.583 21.3707Z" fill="url(#paint46_linear_6890_5229)"/>
<path d="M14.0494 23.4152C14.066 23.7084 14.3514 24.1441 14.5681 24.3805C15.0783 24.9369 15.7625 24.876 16.3375 24.3805L18.8966 22.2371C19.4716 21.7416 19.5899 20.9315 19.0797 20.3751C18.8629 20.1387 18.6227 19.9532 18.2477 19.8908L14.0494 23.4152Z" fill="url(#paint47_radial_6890_5229)"/>
<path d="M14.0494 23.4152C14.066 23.7084 14.3514 24.1441 14.5681 24.3805C15.0783 24.9369 15.7625 24.876 16.3375 24.3805L18.8966 22.2371C19.4716 21.7416 19.5899 20.9315 19.0797 20.3751C18.8629 20.1387 18.6227 19.9532 18.2477 19.8908L14.0494 23.4152Z" fill="url(#paint48_linear_6890_5229)"/>
<path d="M14.0494 23.4152C14.066 23.7084 14.3514 24.1441 14.5681 24.3805C15.0783 24.9369 15.7625 24.876 16.3375 24.3805L18.8966 22.2371C19.4716 21.7416 19.5899 20.9315 19.0797 20.3751C18.8629 20.1387 18.6227 19.9532 18.2477 19.8908L14.0494 23.4152Z" fill="url(#paint49_radial_6890_5229)"/>
<path d="M15.4808 25.0208L16.7071 26.7422C16.7071 26.7422 18.0946 25.7029 18.1825 25.6371L18.9778 25.016C19.5931 24.5552 19.7477 23.7249 19.2539 23.1364C19.0288 22.8683 18.7614 22.6956 18.4352 22.6446L15.4808 25.0208Z" fill="url(#paint50_radial_6890_5229)"/>
<path d="M15.4808 25.0208L16.7071 26.7422C16.7071 26.7422 18.0946 25.7029 18.1825 25.6371L18.9778 25.016C19.5931 24.5552 19.7477 23.7249 19.2539 23.1364C19.0288 22.8683 18.7614 22.6956 18.4352 22.6446L15.4808 25.0208Z" fill="url(#paint51_radial_6890_5229)"/>
<defs>
<radialGradient id="paint0_radial_6890_5229" cx="0" cy="0" r="1" gradientUnits="userSpaceOnUse" gradientTransform="translate(25.6656 9) rotate(132.839) scale(37.5033)">
<stop stop-color="#FFF478"/>
<stop offset="0.474827" stop-color="#FFB02E"/>
<stop offset="1" stop-color="#F70A8D"/>
</radialGradient>
<radialGradient id="paint1_radial_6890_5229" cx="0" cy="0" r="1" gradientUnits="userSpaceOnUse" gradientTransform="translate(16.1657 12.5) rotate(101.31) scale(17.8466 22.8581)">
<stop offset="0.787821" stop-color="#F59639" stop-opacity="0"/>
<stop offset="0.972509" stop-color="#FF7DCE"/>
</radialGradient>
<radialGradient id="paint2_radial_6890_5229" cx="0" cy="0" r="1" gradientUnits="userSpaceOnUse" gradientTransform="translate(18.1657 14) rotate(135) scale(41.0122)">
<stop offset="0.314853" stop-opacity="0"/>
<stop offset="1"/>
</radialGradient>
<radialGradient id="paint3_radial_6890_5229" cx="0" cy="0" r="1" gradientUnits="userSpaceOnUse" gradientTransform="translate(16.1657 17) rotate(77.692) scale(28.1469)">
<stop offset="0.507903" stop-color="#7D6133" stop-opacity="0"/>
<stop offset="1" stop-color="#715B32"/>
</radialGradient>
<radialGradient id="paint4_radial_6890_5229" cx="0" cy="0" r="1" gradientUnits="userSpaceOnUse" gradientTransform="translate(16.6656 16.5) rotate(55.7131) scale(13.3135 9.65032)">
<stop stop-color="#FFB849"/>
<stop offset="1" stop-color="#FFB847" stop-opacity="0"/>
</radialGradient>
<radialGradient id="paint5_radial_6890_5229" cx="0" cy="0" r="1" gradientUnits="userSpaceOnUse" gradientTransform="translate(20.6656 18) rotate(9.86581) scale(11.6726)">
<stop stop-color="#FFA64B"/>
<stop offset="0.900412" stop-color="#FFAE46" stop-opacity="0"/>
</radialGradient>
<radialGradient id="paint6_radial_6890_5229" cx="0" cy="0" r="1" gradientUnits="userSpaceOnUse" gradientTransform="translate(17.6656 15) rotate(43.9708) scale(59.0529)">
<stop offset="0.185425" stop-opacity="0"/>
<stop offset="1" stop-opacity="0.4"/>
</radialGradient>
<radialGradient id="paint7_radial_6890_5229" cx="0" cy="0" r="1" gradientUnits="userSpaceOnUse" gradientTransform="translate(11.737 20.6105) rotate(-50.6589) scale(6.98421)">
<stop stop-color="#CE7C2E"/>
<stop offset="1" stop-color="#CE7C2E" stop-opacity="0"/>
</radialGradient>
<radialGradient id="paint8_radial_6890_5229" cx="0" cy="0" r="1" gradientUnits="userSpaceOnUse" gradientTransform="translate(24.3066 11.5681) rotate(43.7072) scale(1.79691 1.49553)">
<stop stop-color="#D27C1D"/>
<stop offset="1" stop-color="#CB7620" stop-opacity="0"/>
</radialGradient>
<radialGradient id="paint9_radial_6890_5229" cx="0" cy="0" r="1" gradientUnits="userSpaceOnUse" gradientTransform="translate(23.049 10.7635) rotate(38.8939) scale(3.0561 1.09395)">
<stop stop-color="#D28118"/>
<stop offset="1" stop-color="#D68623" stop-opacity="0"/>
</radialGradient>
<radialGradient id="paint10_radial_6890_5229" cx="0" cy="0" r="1" gradientUnits="userSpaceOnUse" gradientTransform="translate(21.0901 10.1639) rotate(24.9343) scale(2.51287 0.899502)">
<stop stop-color="#D28118"/>
<stop offset="1" stop-color="#D68623" stop-opacity="0"/>
</radialGradient>
<radialGradient id="paint11_radial_6890_5229" cx="0" cy="0" r="1" gradientUnits="userSpaceOnUse" gradientTransform="translate(12.2339 10.8038) rotate(29.6831) scale(1.99945 1.6228)">
<stop stop-color="#BE7227"/>
<stop offset="1" stop-color="#C67A2A" stop-opacity="0"/>
</radialGradient>
<radialGradient id="paint12_radial_6890_5229" cx="0" cy="0" r="1" gradientUnits="userSpaceOnUse" gradientTransform="translate(10.6705 11.0644) rotate(4.8884) scale(2.65 1.95783)">
<stop stop-color="#D07E2D"/>
<stop offset="1" stop-color="#D98833" stop-opacity="0"/>
</radialGradient>
<radialGradient id="paint13_radial_6890_5229" cx="0" cy="0" r="1" gradientUnits="userSpaceOnUse" gradientTransform="translate(7.43958 12.2977) rotate(-30.75) scale(1.59679 1.29237)">
<stop stop-color="#DA8924"/>
<stop offset="1" stop-color="#DC8924" stop-opacity="0"/>
</radialGradient>
<radialGradient id="paint14_radial_6890_5229" cx="0" cy="0" r="1" gradientUnits="userSpaceOnUse" gradientTransform="translate(10.3729 12.2419) scale(3.61336 2.27932)">
<stop stop-color="#D59A13"/>
<stop offset="1" stop-color="#D59A13" stop-opacity="0"/>
</radialGradient>
<radialGradient id="paint15_radial_6890_5229" cx="0" cy="0" r="1" gradientUnits="userSpaceOnUse" gradientTransform="translate(9.46797 13.0752) rotate(-10.3912) scale(7.07095 5.21865)">
<stop stop-color="#F1A227"/>
<stop offset="1" stop-color="#F5A72C" stop-opacity="0"/>
</radialGradient>
<radialGradient id="paint16_radial_6890_5229" cx="0" cy="0" r="1" gradientUnits="userSpaceOnUse" gradientTransform="translate(18.8859 10.7849) rotate(132.51) scale(1.77592)">
<stop stop-color="#E8942F"/>
<stop offset="1" stop-color="#FAAB4B" stop-opacity="0"/>
</radialGradient>
<radialGradient id="paint17_radial_6890_5229" cx="0" cy="0" r="1" gradientUnits="userSpaceOnUse" gradientTransform="translate(7.1541 23.5886) rotate(48.7007) scale(8.53103)">
<stop stop-color="#BC6526"/>
<stop offset="1" stop-color="#CF7432" stop-opacity="0"/>
</radialGradient>
<radialGradient id="paint18_radial_6890_5229" cx="0" cy="0" r="1" gradientUnits="userSpaceOnUse" gradientTransform="translate(8.80569 20.886) rotate(101.113) scale(4.28438 3.4902)">
<stop stop-color="#C06C2F"/>
<stop offset="1" stop-color="#C06C2F" stop-opacity="0"/>
</radialGradient>
<radialGradient id="paint19_radial_6890_5229" cx="0" cy="0" r="1" gradientUnits="userSpaceOnUse" gradientTransform="translate(14.4402 28.0955) rotate(21.6444) scale(10.593)">
<stop stop-color="#F47360"/>
<stop offset="1" stop-color="#F47360" stop-opacity="0"/>
</radialGradient>
<radialGradient id="paint20_radial_6890_5229" cx="0" cy="0" r="1" gradientUnits="userSpaceOnUse" gradientTransform="translate(16.1656 29.2631) rotate(-90) scale(11.6997 11.7155)">
<stop stop-color="#F70A8D"/>
<stop offset="1" stop-color="#89029C"/>
</radialGradient>
<radialGradient id="paint21_radial_6890_5229" cx="0" cy="0" r="1" gradientUnits="userSpaceOnUse" gradientTransform="translate(21.9631 12.892) rotate(101.827) scale(5.73244 7.86614)">
<stop offset="0.370349" stop-color="#4C274A"/>
<stop offset="0.52596" stop-color="#543E50"/>
<stop offset="0.570372" stop-color="#543E50"/>
<stop offset="0.717774" stop-color="#4D3736"/>
</radialGradient>
<radialGradient id="paint22_radial_6890_5229" cx="0" cy="0" r="1" gradientUnits="userSpaceOnUse" gradientTransform="translate(22.3744 10.3159) rotate(121.921) scale(2.99513 4.29206)">
<stop offset="0.645531" stop-color="#4C2746" stop-opacity="0"/>
<stop offset="1" stop-color="#4C2746"/>
</radialGradient>
<radialGradient id="paint23_radial_6890_5229" cx="0" cy="0" r="1" gradientUnits="userSpaceOnUse" gradientTransform="translate(18.9387 11.1604) rotate(25.981) scale(1.64517 1.8497)">
<stop stop-color="#563E51"/>
<stop offset="1" stop-color="#563E51" stop-opacity="0"/>
</radialGradient>
<radialGradient id="paint24_radial_6890_5229" cx="0" cy="0" r="1" gradientUnits="userSpaceOnUse" gradientTransform="translate(10.866 12.8921) rotate(78.1731) scale(5.73244 7.86614)">
<stop offset="0.370349" stop-color="#4C274A"/>
<stop offset="0.52596" stop-color="#543E50"/>
<stop offset="0.570372" stop-color="#543E50"/>
<stop offset="0.717774" stop-color="#4D3736"/>
</radialGradient>
<radialGradient id="paint25_radial_6890_5229" cx="0" cy="0" r="1" gradientUnits="userSpaceOnUse" gradientTransform="translate(10.4547 10.316) rotate(58.0791) scale(2.99513 4.29206)">
<stop offset="0.645531" stop-color="#4C2746" stop-opacity="0"/>
<stop offset="1" stop-color="#4C2746"/>
</radialGradient>
<radialGradient id="paint26_radial_6890_5229" cx="0" cy="0" r="1" gradientUnits="userSpaceOnUse" gradientTransform="translate(13.8904 11.1605) rotate(154.019) scale(1.64517 1.8497)">
<stop stop-color="#563E51"/>
<stop offset="1" stop-color="#563E51" stop-opacity="0"/>
</radialGradient>
<radialGradient id="paint27_radial_6890_5229" cx="0" cy="0" r="1" gradientUnits="userSpaceOnUse" gradientTransform="translate(21.4886 15.4131) rotate(136.865) scale(32.4636 32.2586)">
<stop offset="0.239583" stop-color="#FFCC42"/>
<stop offset="0.537866" stop-color="#FFB02E"/>
<stop offset="1" stop-color="#F70A8D"/>
</radialGradient>
<radialGradient id="paint28_radial_6890_5229" cx="0" cy="0" r="1" gradientUnits="userSpaceOnUse" gradientTransform="translate(7.39785 28.773) rotate(141.052) scale(14.9656)">
<stop offset="0.239583" stop-color="#FFB52F" stop-opacity="0"/>
<stop offset="0.526687" stop-color="#FFD648"/>
<stop offset="0.584428" stop-color="#FFD648"/>
<stop offset="1" stop-color="#FFBB30" stop-opacity="0"/>
</radialGradient>
<radialGradient id="paint29_radial_6890_5229" cx="0" cy="0" r="1" gradientUnits="userSpaceOnUse" gradientTransform="translate(8.72484 20.8413) rotate(66.4774) scale(3.07841 3.07399)">
<stop stop-color="#FEB32F"/>
<stop offset="1" stop-color="#FEB32F" stop-opacity="0"/>
</radialGradient>
<radialGradient id="paint30_radial_6890_5229" cx="0" cy="0" r="1" gradientUnits="userSpaceOnUse" gradientTransform="translate(12.8484 21.6264) rotate(129.351) scale(2.82715 1.1325)">
<stop stop-color="#FFBB33"/>
<stop offset="1" stop-color="#FFBB33" stop-opacity="0"/>
</radialGradient>
<radialGradient id="paint31_radial_6890_5229" cx="0" cy="0" r="1" gradientUnits="userSpaceOnUse" gradientTransform="translate(14.6019 23.5271) rotate(135.299) scale(2.69975 0.967948)">
<stop stop-color="#FFBB33"/>
<stop offset="1" stop-color="#FFBB33" stop-opacity="0"/>
</radialGradient>
<linearGradient id="paint32_linear_6890_5229" x1="5.65002" y1="20.4356" x2="9.0493" y2="21.0267" gradientUnits="userSpaceOnUse">
<stop stop-color="#DF9428"/>
<stop offset="1" stop-color="#DF9428" stop-opacity="0"/>
</linearGradient>
<linearGradient id="paint33_linear_6890_5229" x1="1.90971" y1="18.84" x2="6.46583" y2="17.7547" gradientUnits="userSpaceOnUse">
<stop offset="0.328125" stop-color="#EE891E"/>
<stop offset="0.864583" stop-color="#FA9428" stop-opacity="0"/>
</linearGradient>
<linearGradient id="paint34_linear_6890_5229" x1="14.8351" y1="25.7212" x2="16.3296" y2="27.5817" gradientUnits="userSpaceOnUse">
<stop stop-color="#FFBF45" stop-opacity="0"/>
<stop offset="1" stop-color="#FFAF4A"/>
</linearGradient>
<radialGradient id="paint35_radial_6890_5229" cx="0" cy="0" r="1" gradientUnits="userSpaceOnUse" gradientTransform="translate(13.2163 21.8763) rotate(94.8552) scale(9.12245 9.50497)">
<stop offset="0.65203" stop-color="#FFB745" stop-opacity="0"/>
<stop offset="0.892907" stop-color="#F69044"/>
<stop offset="1" stop-color="#DE6A63"/>
</radialGradient>
<radialGradient id="paint36_radial_6890_5229" cx="0" cy="0" r="1" gradientUnits="userSpaceOnUse" gradientTransform="translate(9.97435 18.9104) rotate(103.736) scale(2.22152 0.937187)">
<stop stop-color="#FFD445"/>
<stop offset="1" stop-color="#FFD345" stop-opacity="0"/>
</radialGradient>
<radialGradient id="paint37_radial_6890_5229" cx="0" cy="0" r="1" gradientUnits="userSpaceOnUse" gradientTransform="translate(15.24 17.3711) rotate(68.5523) scale(1.34282 0.985316)">
<stop stop-color="#FFDA43"/>
<stop offset="1" stop-color="#FFDA43" stop-opacity="0"/>
</radialGradient>
<radialGradient id="paint38_radial_6890_5229" cx="0" cy="0" r="1" gradientUnits="userSpaceOnUse" gradientTransform="translate(17.9403 18.4767) rotate(69.5165) scale(1.68218 1.23432)">
<stop stop-color="#FFDA43"/>
<stop offset="1" stop-color="#FFDA43" stop-opacity="0"/>
</radialGradient>
<radialGradient id="paint39_radial_6890_5229" cx="0" cy="0" r="1" gradientUnits="userSpaceOnUse" gradientTransform="translate(10.1706 17.765) rotate(76.4521) scale(1.84517 1.37356)">
<stop offset="0.328125" stop-color="#FFDA43"/>
<stop offset="0.723958" stop-color="#FFDA43" stop-opacity="0"/>
</radialGradient>
<radialGradient id="paint40_radial_6890_5229" cx="0" cy="0" r="1" gradientUnits="userSpaceOnUse" gradientTransform="translate(10.5342 19.5306) rotate(135) scale(1.53094 0.240982)">
<stop stop-color="#B9671B"/>
<stop offset="0.849337" stop-color="#B9671B" stop-opacity="0"/>
</radialGradient>
<radialGradient id="paint41_radial_6890_5229" cx="0" cy="0" r="1" gradientUnits="userSpaceOnUse" gradientTransform="translate(11.5054 17.2641) rotate(49.0035) scale(2.00656 4.27746)">
<stop offset="0.545035" stop-color="#E1A21C"/>
<stop offset="1" stop-color="#FA9428" stop-opacity="0"/>
</radialGradient>
<linearGradient id="paint42_linear_6890_5229" x1="14.8658" y1="20.5408" x2="13.6907" y2="19.6202" gradientUnits="userSpaceOnUse">
<stop stop-color="#CD7313"/>
<stop offset="1" stop-color="#FA9428" stop-opacity="0"/>
</linearGradient>
<radialGradient id="paint43_radial_6890_5229" cx="0" cy="0" r="1" gradientUnits="userSpaceOnUse" gradientTransform="translate(15.3689 17.2804) rotate(70.7572) scale(1.05624 0.56088)">
<stop stop-color="#FFDB3F"/>
<stop offset="1" stop-color="#FFDB3F" stop-opacity="0"/>
</radialGradient>
<radialGradient id="paint44_radial_6890_5229" cx="0" cy="0" r="1" gradientUnits="userSpaceOnUse" gradientTransform="translate(14.3055 19.7177) rotate(-42.776) scale(4.56535 0.785278)">
<stop stop-color="#A03B04"/>
<stop offset="1" stop-color="#FA9428" stop-opacity="0"/>
</radialGradient>
<radialGradient id="paint45_radial_6890_5229" cx="0" cy="0" r="1" gradientUnits="userSpaceOnUse" gradientTransform="translate(18.2193 18.4349) rotate(63.8532) scale(0.964253 0.54445)">
<stop stop-color="#FFDB3F"/>
<stop offset="1" stop-color="#FFDB3F" stop-opacity="0"/>
</radialGradient>
<linearGradient id="paint46_linear_6890_5229" x1="17.9589" y1="21.7396" x2="16.6401" y2="20.4" gradientUnits="userSpaceOnUse">
<stop stop-color="#CD7313"/>
<stop offset="1" stop-color="#FA9428" stop-opacity="0"/>
</linearGradient>
<radialGradient id="paint47_radial_6890_5229" cx="0" cy="0" r="1" gradientUnits="userSpaceOnUse" gradientTransform="translate(15.8068 21.8139) rotate(-37.875) scale(4.40237 0.75558)">
<stop stop-color="#A03B04"/>
<stop offset="1" stop-color="#FA9428" stop-opacity="0"/>
</radialGradient>
<linearGradient id="paint48_linear_6890_5229" x1="18.7142" y1="23.3221" x2="17.6959" y2="22.336" gradientUnits="userSpaceOnUse">
<stop stop-color="#CD7313"/>
<stop offset="1" stop-color="#FA9428" stop-opacity="0"/>
</linearGradient>
<radialGradient id="paint49_radial_6890_5229" cx="0" cy="0" r="1" gradientUnits="userSpaceOnUse" gradientTransform="translate(18.9153 21.0117) rotate(68.9162) scale(1.02599 0.808945)">
<stop stop-color="#FFDB3F"/>
<stop offset="1" stop-color="#FFDB3F" stop-opacity="0"/>
</radialGradient>
<radialGradient id="paint50_radial_6890_5229" cx="0" cy="0" r="1" gradientUnits="userSpaceOnUse" gradientTransform="translate(16.938 23.4453) rotate(-35.419) scale(3.32683 1.21457)">
<stop stop-color="#A03B04"/>
<stop offset="1" stop-color="#FA9428" stop-opacity="0"/>
</radialGradient>
<radialGradient id="paint51_radial_6890_5229" cx="0" cy="0" r="1" gradientUnits="userSpaceOnUse" gradientTransform="translate(19.1087 23.7275) rotate(72.6483) scale(1.00567 0.744893)">
<stop stop-color="#FFD943"/>
<stop offset="1" stop-color="#FFD943" stop-opacity="0"/>
</radialGradient>
</defs>
</svg>
