<svg width="32" height="32" viewBox="0 0 32 32" fill="none" xmlns="http://www.w3.org/2000/svg">
<path d="M15.9989 29.9978C25.3333 29.9978 29.9978 23.7303 29.9978 15.9989C29.9978 8.26751 25.3333 2 15.9989 2C6.66443 2 2 8.26751 2 15.9989C2 23.7303 6.66443 29.9978 15.9989 29.9978Z" fill="url(#paint0_radial_31_1629)"/>
<path d="M15.9989 29.9978C25.3333 29.9978 29.9978 23.7303 29.9978 15.9989C29.9978 8.26751 25.3333 2 15.9989 2C6.66443 2 2 8.26751 2 15.9989C2 23.7303 6.66443 29.9978 15.9989 29.9978Z" fill="url(#paint1_radial_31_1629)"/>
<path d="M15.9989 29.9978C25.3333 29.9978 29.9978 23.7303 29.9978 15.9989C29.9978 8.26751 25.3333 2 15.9989 2C6.66443 2 2 8.26751 2 15.9989C2 23.7303 6.66443 29.9978 15.9989 29.9978Z" fill="url(#paint2_radial_31_1629)" fill-opacity="0.6"/>
<path d="M15.9989 29.9978C25.3333 29.9978 29.9978 23.7303 29.9978 15.9989C29.9978 8.26751 25.3333 2 15.9989 2C6.66443 2 2 8.26751 2 15.9989C2 23.7303 6.66443 29.9978 15.9989 29.9978Z" fill="url(#paint3_radial_31_1629)"/>
<path d="M15.9989 29.9978C25.3333 29.9978 29.9978 23.7303 29.9978 15.9989C29.9978 8.26751 25.3333 2 15.9989 2C6.66443 2 2 8.26751 2 15.9989C2 23.7303 6.66443 29.9978 15.9989 29.9978Z" fill="url(#paint4_radial_31_1629)"/>
<path d="M15.9989 29.9978C25.3333 29.9978 29.9978 23.7303 29.9978 15.9989C29.9978 8.26751 25.3333 2 15.9989 2C6.66443 2 2 8.26751 2 15.9989C2 23.7303 6.66443 29.9978 15.9989 29.9978Z" fill="url(#paint5_radial_31_1629)"/>
<path d="M15.9989 29.9978C25.3333 29.9978 29.9978 23.7303 29.9978 15.9989C29.9978 8.26751 25.3333 2 15.9989 2C6.66443 2 2 8.26751 2 15.9989C2 23.7303 6.66443 29.9978 15.9989 29.9978Z" fill="url(#paint6_radial_31_1629)"/>
<path d="M15.9989 29.9978C25.3333 29.9978 29.9978 23.7303 29.9978 15.9989C29.9978 8.26751 25.3333 2 15.9989 2C6.66443 2 2 8.26751 2 15.9989C2 23.7303 6.66443 29.9978 15.9989 29.9978Z" fill="url(#paint7_radial_31_1629)"/>
<path d="M15.9989 29.9978C25.3333 29.9978 29.9978 23.7303 29.9978 15.9989C29.9978 8.26751 25.3333 2 15.9989 2C6.66443 2 2 8.26751 2 15.9989C2 23.7303 6.66443 29.9978 15.9989 29.9978Z" fill="url(#paint8_radial_31_1629)"/>
<path d="M15.9989 29.9978C25.3333 29.9978 29.9978 23.7303 29.9978 15.9989C29.9978 8.26751 25.3333 2 15.9989 2C6.66443 2 2 8.26751 2 15.9989C2 23.7303 6.66443 29.9978 15.9989 29.9978Z" fill="url(#paint9_radial_31_1629)"/>
<path d="M15.9989 29.9978C25.3333 29.9978 29.9978 23.7303 29.9978 15.9989C29.9978 8.26751 25.3333 2 15.9989 2C6.66443 2 2 8.26751 2 15.9989C2 23.7303 6.66443 29.9978 15.9989 29.9978Z" fill="url(#paint10_radial_31_1629)"/>
<path d="M10.5 18C12.9853 18 15 15.9853 15 13.5C15 11.0147 12.9853 9 10.5 9C8.01472 9 6 11.0147 6 13.5C6 15.9853 8.01472 18 10.5 18Z" fill="white"/>
<path d="M21.5 18C23.9853 18 26 15.9853 26 13.5C26 11.0147 23.9853 9 21.5 9C19.0147 9 17 11.0147 17 13.5C17 15.9853 19.0147 18 21.5 18Z" fill="white"/>
<path d="M12 16C13.1046 16 14 15.1046 14 14C14 12.8954 13.1046 12 12 12C10.8954 12 10 12.8954 10 14C10 15.1046 10.8954 16 12 16Z" fill="url(#paint11_linear_31_1629)"/>
<path d="M20 16C21.1046 16 22 15.1046 22 14C22 12.8954 21.1046 12 20 12C18.8954 12 18 12.8954 18 14C18 15.1046 18.8954 16 20 16Z" fill="url(#paint12_linear_31_1629)"/>
<path fill-rule="evenodd" clip-rule="evenodd" d="M9.88364 5.3966L9.88406 5.39411L9.88135 5.40785C9.8785 5.42172 9.87336 5.44534 9.86537 5.47732C9.84934 5.54143 9.8221 5.63813 9.77937 5.75647C9.69335 5.99466 9.54798 6.31106 9.31252 6.625C8.85826 7.23069 8.03752 7.875 6.50002 7.875C6.15485 7.875 5.87502 8.15482 5.87502 8.5C5.87502 8.84518 6.15485 9.125 6.50002 9.125C8.46253 9.125 9.64179 8.26931 10.3125 7.375C10.6396 6.93894 10.8379 6.50534 10.9551 6.18103C11.0139 6.01812 11.0531 5.88044 11.078 5.78049C11.0906 5.73044 11.0996 5.68961 11.1058 5.65953C11.1088 5.64449 11.1112 5.63211 11.113 5.62259L11.1152 5.61047L11.116 5.60605L11.1163 5.60426C11.1166 5.60198 11.1165 5.60275 11.1165 5.60275C11.1733 5.26227 10.9433 4.94025 10.6028 4.8835C10.2633 4.82693 9.94227 5.05537 9.88406 5.39411" fill="url(#paint13_linear_31_1629)"/>
<path fill-rule="evenodd" clip-rule="evenodd" d="M9.88364 5.3966L9.88406 5.39411L9.88135 5.40785C9.8785 5.42172 9.87336 5.44534 9.86537 5.47732C9.84934 5.54143 9.8221 5.63813 9.77937 5.75647C9.69335 5.99466 9.54798 6.31106 9.31252 6.625C8.85826 7.23069 8.03752 7.875 6.50002 7.875C6.15485 7.875 5.87502 8.15482 5.87502 8.5C5.87502 8.84518 6.15485 9.125 6.50002 9.125C8.46253 9.125 9.64179 8.26931 10.3125 7.375C10.6396 6.93894 10.8379 6.50534 10.9551 6.18103C11.0139 6.01812 11.0531 5.88044 11.078 5.78049C11.0906 5.73044 11.0996 5.68961 11.1058 5.65953C11.1088 5.64449 11.1112 5.63211 11.113 5.62259L11.1152 5.61047L11.116 5.60605L11.1163 5.60426C11.1166 5.60198 11.1165 5.60275 11.1165 5.60275C11.1733 5.26227 10.9433 4.94025 10.6028 4.8835C10.2633 4.82693 9.94227 5.05537 9.88406 5.39411" fill="url(#paint14_radial_31_1629)"/>
<path fill-rule="evenodd" clip-rule="evenodd" d="M22.1164 5.3966L22.1159 5.39411L22.1186 5.40785C22.1215 5.42172 22.1266 5.44534 22.1346 5.47732C22.1507 5.54143 22.1779 5.63813 22.2206 5.75647C22.3066 5.99466 22.452 6.31106 22.6875 6.625C23.1417 7.23069 23.9625 7.875 25.5 7.875C25.8452 7.875 26.125 8.15482 26.125 8.5C26.125 8.84518 25.8452 9.125 25.5 9.125C23.5375 9.125 22.3582 8.26931 21.6875 7.375C21.3604 6.93894 21.1621 6.50534 21.0449 6.18103C20.9861 6.01812 20.9469 5.88044 20.922 5.78049C20.9094 5.73044 20.9004 5.68961 20.8942 5.65953C20.8912 5.64449 20.8888 5.63211 20.887 5.62259L20.8848 5.61047L20.884 5.60605L20.8837 5.60426C20.8834 5.60198 20.8835 5.60275 20.8835 5.60275C20.8267 5.26227 21.0567 4.94025 21.3972 4.8835C21.7367 4.82693 22.0577 5.05537 22.1159 5.39411" fill="url(#paint15_radial_31_1629)"/>
<path d="M22.7179 24.0264C23.0288 25.0863 22.1033 26 20.9987 26C17.0451 26 14.6325 26 11.0008 26C9.8962 26 8.9712 25.0863 9.28208 24.0264C10.1341 21.1214 12.8193 19 16 19C19.1807 19 21.8659 21.1214 22.7179 24.0264Z" fill="url(#paint16_radial_31_1629)"/>
<defs>
<radialGradient id="paint0_radial_31_1629" cx="0" cy="0" r="1" gradientUnits="userSpaceOnUse" gradientTransform="translate(25.5 9) rotate(132.839) scale(37.5033)">
<stop stop-color="#FFF478"/>
<stop offset="0.474827" stop-color="#FFB02E"/>
<stop offset="1" stop-color="#F70A8D"/>
</radialGradient>
<radialGradient id="paint1_radial_31_1629" cx="0" cy="0" r="1" gradientUnits="userSpaceOnUse" gradientTransform="translate(16 49) rotate(-90) scale(51 64.9968)">
<stop offset="0.670495" stop-color="#BFB2DD" stop-opacity="0"/>
<stop offset="0.747649" stop-color="#A4AEEB"/>
<stop offset="0.811631" stop-color="#379EFF"/>
<stop offset="0.964059" stop-color="#1345B7"/>
</radialGradient>
<radialGradient id="paint2_radial_31_1629" cx="0" cy="0" r="1" gradientUnits="userSpaceOnUse" gradientTransform="translate(18 14) rotate(135) scale(41.0122)">
<stop offset="0.314853" stop-opacity="0"/>
<stop offset="1"/>
</radialGradient>
<radialGradient id="paint3_radial_31_1629" cx="0" cy="0" r="1" gradientUnits="userSpaceOnUse" gradientTransform="translate(10.2264 13.9614) rotate(71.7481) scale(4.68941)">
<stop offset="0.359039" stop-color="#C84E28"/>
<stop offset="1" stop-color="#C84528" stop-opacity="0"/>
</radialGradient>
<radialGradient id="paint4_radial_31_1629" cx="0" cy="0" r="1" gradientUnits="userSpaceOnUse" gradientTransform="translate(20.3652 12.6348) rotate(124.058) scale(4.06064)">
<stop offset="0.135653" stop-color="#392108"/>
<stop offset="1" stop-color="#C87928" stop-opacity="0"/>
</radialGradient>
<radialGradient id="paint5_radial_31_1629" cx="0" cy="0" r="1" gradientUnits="userSpaceOnUse" gradientTransform="translate(21.3127 14.2456) rotate(99.7824) scale(4.18265 4.51371)">
<stop offset="0.359039" stop-color="#C84E28"/>
<stop offset="1" stop-color="#C84528" stop-opacity="0"/>
</radialGradient>
<radialGradient id="paint6_radial_31_1629" cx="0" cy="0" r="1" gradientUnits="userSpaceOnUse" gradientTransform="translate(9.70524 13.6771) rotate(152.213) scale(4.98041)">
<stop offset="0.31498" stop-color="#392108"/>
<stop offset="1" stop-color="#C87928" stop-opacity="0"/>
</radialGradient>
<radialGradient id="paint7_radial_31_1629" cx="0" cy="0" r="1" gradientUnits="userSpaceOnUse" gradientTransform="translate(22.6724 8.20707) rotate(132.337) scale(1.51527 3.38546)">
<stop offset="0.09375" stop-color="#1E71CB"/>
<stop offset="1" stop-color="#2076D5" stop-opacity="0"/>
</radialGradient>
<radialGradient id="paint8_radial_31_1629" cx="0" cy="0" r="1" gradientUnits="userSpaceOnUse" gradientTransform="translate(24.52 8.85038) rotate(95.0006) scale(1.44305 1.6968)">
<stop offset="0.09375" stop-color="#2781E4"/>
<stop offset="1" stop-color="#2781E4" stop-opacity="0"/>
</radialGradient>
<radialGradient id="paint9_radial_31_1629" cx="0" cy="0" r="1" gradientUnits="userSpaceOnUse" gradientTransform="translate(6.86904 8.81808) rotate(90) scale(1.42285 2.07369)">
<stop stop-color="#4475BF" stop-opacity="0.92"/>
<stop offset="0.731733" stop-color="#4475BF" stop-opacity="0.194442"/>
<stop offset="0.854167" stop-color="#4475BF" stop-opacity="0.0847001"/>
<stop offset="1" stop-color="#4475BF" stop-opacity="0"/>
</radialGradient>
<radialGradient id="paint10_radial_31_1629" cx="0" cy="0" r="1" gradientUnits="userSpaceOnUse" gradientTransform="translate(8.82355 8.23208) rotate(60.0652) scale(1.59496 3.16336)">
<stop stop-color="#4475BF" stop-opacity="0.92"/>
<stop offset="0.734125" stop-color="#4475BF" stop-opacity="0.03"/>
<stop offset="0.885417" stop-color="#4475BF" stop-opacity="0"/>
<stop offset="1" stop-color="#4475BF" stop-opacity="0"/>
</radialGradient>
<linearGradient id="paint11_linear_31_1629" x1="20.6154" y1="12" x2="19.9265" y2="16.0302" gradientUnits="userSpaceOnUse">
<stop stop-color="#553B3E"/>
<stop offset="1" stop-color="#3D2432"/>
</linearGradient>
<linearGradient id="paint12_linear_31_1629" x1="20.6154" y1="12" x2="19.9265" y2="16.0302" gradientUnits="userSpaceOnUse">
<stop stop-color="#553B3E"/>
<stop offset="1" stop-color="#3D2432"/>
</linearGradient>
<linearGradient id="paint13_linear_31_1629" x1="9.50002" y1="5" x2="9.50002" y2="6.5" gradientUnits="userSpaceOnUse">
<stop offset="0.0299084" stop-color="#524049"/>
<stop offset="1" stop-color="#4A2C42"/>
</linearGradient>
<radialGradient id="paint14_radial_31_1629" cx="0" cy="0" r="1" gradientUnits="userSpaceOnUse" gradientTransform="translate(7.00003 5) rotate(54.4623) scale(4.30116)">
<stop offset="0.541667" stop-color="#493032"/>
<stop offset="0.806723" stop-color="#5E445A"/>
<stop offset="0.955326" stop-color="#4A2C42"/>
</radialGradient>
<radialGradient id="paint15_radial_31_1629" cx="0" cy="0" r="1" gradientUnits="userSpaceOnUse" gradientTransform="translate(25 5) rotate(125.538) scale(4.30116)">
<stop stop-color="#C2B4B5"/>
<stop offset="0.887405" stop-color="#462B45"/>
<stop offset="1" stop-color="#4A2C42"/>
</radialGradient>
<radialGradient id="paint16_radial_31_1629" cx="0" cy="0" r="1" gradientUnits="userSpaceOnUse" gradientTransform="translate(16 27) rotate(-90) scale(9 18)">
<stop stop-color="#F70A8D"/>
<stop offset="1" stop-color="#89029C"/>
</radialGradient>
</defs>
</svg>
