<svg width="32" height="32" viewBox="0 0 32 32" fill="none" xmlns="http://www.w3.org/2000/svg">
<g clip-path="url(#clip0_31_1589)">
<path d="M15.9989 29.9978C25.3333 29.9978 29.9978 23.7303 29.9978 15.9989C29.9978 8.26751 25.3333 2 15.9989 2C6.66443 2 2 8.26751 2 15.9989C2 23.7303 6.66443 29.9978 15.9989 29.9978Z" fill="url(#paint0_radial_31_1589)"/>
<path d="M15.9989 29.9978C25.3333 29.9978 29.9978 23.7303 29.9978 15.9989C29.9978 8.26751 25.3333 2 15.9989 2C6.66443 2 2 8.26751 2 15.9989C2 23.7303 6.66443 29.9978 15.9989 29.9978Z" fill="url(#paint1_radial_31_1589)"/>
<path d="M15.9989 29.9978C25.3333 29.9978 29.9978 23.7303 29.9978 15.9989C29.9978 8.26751 25.3333 2 15.9989 2C6.66443 2 2 8.26751 2 15.9989C2 23.7303 6.66443 29.9978 15.9989 29.9978Z" fill="url(#paint2_radial_31_1589)" fill-opacity="0.6"/>
<path d="M15.9989 29.9978C25.3333 29.9978 29.9978 23.7303 29.9978 15.9989C29.9978 8.26751 25.3333 2 15.9989 2C6.66443 2 2 8.26751 2 15.9989C2 23.7303 6.66443 29.9978 15.9989 29.9978Z" fill="url(#paint3_radial_31_1589)"/>
<path d="M15.9989 29.9978C25.3333 29.9978 29.9978 23.7303 29.9978 15.9989C29.9978 8.26751 25.3333 2 15.9989 2C6.66443 2 2 8.26751 2 15.9989C2 23.7303 6.66443 29.9978 15.9989 29.9978Z" fill="url(#paint4_radial_31_1589)"/>
<path d="M15.9989 29.9978C25.3333 29.9978 29.9978 23.7303 29.9978 15.9989C29.9978 8.26751 25.3333 2 15.9989 2C6.66443 2 2 8.26751 2 15.9989C2 23.7303 6.66443 29.9978 15.9989 29.9978Z" fill="url(#paint5_radial_31_1589)"/>
<path d="M15.9989 29.9978C25.3333 29.9978 29.9978 23.7303 29.9978 15.9989C29.9978 8.26751 25.3333 2 15.9989 2C6.66443 2 2 8.26751 2 15.9989C2 23.7303 6.66443 29.9978 15.9989 29.9978Z" fill="url(#paint6_radial_31_1589)"/>
<path d="M15.9989 29.9978C25.3333 29.9978 29.9978 23.7303 29.9978 15.9989C29.9978 8.26751 25.3333 2 15.9989 2C6.66443 2 2 8.26751 2 15.9989C2 23.7303 6.66443 29.9978 15.9989 29.9978Z" fill="url(#paint7_radial_31_1589)"/>
<path d="M15.9989 29.9978C25.3333 29.9978 29.9978 23.7303 29.9978 15.9989C29.9978 8.26751 25.3333 2 15.9989 2C6.66443 2 2 8.26751 2 15.9989C2 23.7303 6.66443 29.9978 15.9989 29.9978Z" fill="url(#paint8_radial_31_1589)"/>
<path d="M15.9989 29.9978C25.3333 29.9978 29.9978 23.7303 29.9978 15.9989C29.9978 8.26751 25.3333 2 15.9989 2C6.66443 2 2 8.26751 2 15.9989C2 23.7303 6.66443 29.9978 15.9989 29.9978Z" fill="url(#paint9_radial_31_1589)"/>
<path d="M15.9989 29.9978C25.3333 29.9978 29.9978 23.7303 29.9978 15.9989C29.9978 8.26751 25.3333 2 15.9989 2C6.66443 2 2 8.26751 2 15.9989C2 23.7303 6.66443 29.9978 15.9989 29.9978Z" fill="url(#paint10_radial_31_1589)"/>
<path d="M10.4191 16.2244C12.742 16.2244 14.6251 14.3414 14.6251 12.0185C14.6251 9.69557 12.742 7.8125 10.4191 7.8125C8.09621 7.8125 6.21313 9.69557 6.21313 12.0185C6.21313 14.3414 8.09621 16.2244 10.4191 16.2244Z" fill="white"/>
<path d="M21.5683 16.3011C23.9123 16.3011 25.8126 14.4009 25.8126 12.0568C25.8126 9.71274 23.9123 7.8125 21.5683 7.8125C19.2242 7.8125 17.324 9.71274 17.324 12.0568C17.324 14.4009 19.2242 16.3011 21.5683 16.3011Z" fill="white"/>
<path fill-rule="evenodd" clip-rule="evenodd" d="M16 20C12.46 20 11.098 22.04 10.8944 22.4472C10.6474 22.9412 10.0467 23.1414 9.55276 22.8944C9.05878 22.6474 8.85856 22.0468 9.10555 21.5528C9.56861 20.6267 11.54 18 16 18C20.46 18 22.4313 20.6267 22.8944 21.5528C23.1414 22.0468 22.9412 22.6474 22.4472 22.8944C21.9532 23.1414 21.3525 22.9412 21.1055 22.4472C20.9019 22.04 19.54 20 16 20Z" fill="url(#paint11_radial_31_1589)"/>
<path fill-rule="evenodd" clip-rule="evenodd" d="M16 20C12.46 20 11.098 22.04 10.8944 22.4472C10.6474 22.9412 10.0467 23.1414 9.55276 22.8944C9.05878 22.6474 8.85856 22.0468 9.10555 21.5528C9.56861 20.6267 11.54 18 16 18C20.46 18 22.4313 20.6267 22.8944 21.5528C23.1414 22.0468 22.9412 22.6474 22.4472 22.8944C21.9532 23.1414 21.3525 22.9412 21.1055 22.4472C20.9019 22.04 19.54 20 16 20Z" fill="url(#paint12_radial_31_1589)"/>
<path fill-rule="evenodd" clip-rule="evenodd" d="M16 20C12.46 20 11.098 22.04 10.8944 22.4472C10.6474 22.9412 10.0467 23.1414 9.55276 22.8944C9.05878 22.6474 8.85856 22.0468 9.10555 21.5528C9.56861 20.6267 11.54 18 16 18C20.46 18 22.4313 20.6267 22.8944 21.5528C23.1414 22.0468 22.9412 22.6474 22.4472 22.8944C21.9532 23.1414 21.3525 22.9412 21.1055 22.4472C20.9019 22.04 19.54 20 16 20Z" fill="url(#paint13_radial_31_1589)"/>
<path fill-rule="evenodd" clip-rule="evenodd" d="M16 20C12.46 20 11.098 22.04 10.8944 22.4472C10.6474 22.9412 10.0467 23.1414 9.55276 22.8944C9.05878 22.6474 8.85856 22.0468 9.10555 21.5528C9.56861 20.6267 11.54 18 16 18C20.46 18 22.4313 20.6267 22.8944 21.5528C23.1414 22.0468 22.9412 22.6474 22.4472 22.8944C21.9532 23.1414 21.3525 22.9412 21.1055 22.4472C20.9019 22.04 19.54 20 16 20Z" fill="url(#paint14_radial_31_1589)"/>
<path fill-rule="evenodd" clip-rule="evenodd" d="M11 14C12.1046 14 13 13.1046 13 12C13 10.8954 12.1046 10 11 10C9.89543 10 9 10.8954 9 12C9 13.1046 9.89543 14 11 14ZM21 14C22.1046 14 23 13.1046 23 12C23 10.8954 22.1046 10 21 10C19.8954 10 19 10.8954 19 12C19 13.1046 19.8954 14 21 14Z" fill="url(#paint15_linear_31_1589)"/>
</g>
<defs>
<radialGradient id="paint0_radial_31_1589" cx="0" cy="0" r="1" gradientUnits="userSpaceOnUse" gradientTransform="translate(25.5 9) rotate(132.839) scale(37.5033)">
<stop stop-color="#FFF478"/>
<stop offset="0.474827" stop-color="#FFB02E"/>
<stop offset="1" stop-color="#F70A8D"/>
</radialGradient>
<radialGradient id="paint1_radial_31_1589" cx="0" cy="0" r="1" gradientUnits="userSpaceOnUse" gradientTransform="translate(16 12.5) rotate(101.31) scale(17.8466 22.8581)">
<stop offset="0.787821" stop-color="#F59639" stop-opacity="0"/>
<stop offset="0.972509" stop-color="#FF7DCE"/>
</radialGradient>
<radialGradient id="paint2_radial_31_1589" cx="0" cy="0" r="1" gradientUnits="userSpaceOnUse" gradientTransform="translate(18 14) rotate(135) scale(41.0122)">
<stop offset="0.314853" stop-opacity="0"/>
<stop offset="1"/>
</radialGradient>
<radialGradient id="paint3_radial_31_1589" cx="0" cy="0" r="1" gradientUnits="userSpaceOnUse" gradientTransform="translate(16 17) rotate(77.692) scale(28.1469)">
<stop offset="0.507903" stop-color="#7D6133" stop-opacity="0"/>
<stop offset="1" stop-color="#715B32"/>
</radialGradient>
<radialGradient id="paint4_radial_31_1589" cx="0" cy="0" r="1" gradientUnits="userSpaceOnUse" gradientTransform="translate(16.5 16.5) rotate(55.7131) scale(13.3135 9.65032)">
<stop stop-color="#FFB849"/>
<stop offset="1" stop-color="#FFB847" stop-opacity="0"/>
</radialGradient>
<radialGradient id="paint5_radial_31_1589" cx="0" cy="0" r="1" gradientUnits="userSpaceOnUse" gradientTransform="translate(20.5 18) rotate(9.86581) scale(11.6726)">
<stop stop-color="#FFA64B"/>
<stop offset="0.900412" stop-color="#FFAE46" stop-opacity="0"/>
</radialGradient>
<radialGradient id="paint6_radial_31_1589" cx="0" cy="0" r="1" gradientUnits="userSpaceOnUse" gradientTransform="translate(17.5 15) rotate(43.9708) scale(59.0529)">
<stop offset="0.185425" stop-opacity="0"/>
<stop offset="1" stop-opacity="0.4"/>
</radialGradient>
<radialGradient id="paint7_radial_31_1589" cx="0" cy="0" r="1" gradientUnits="userSpaceOnUse" gradientTransform="translate(20.3599 11.3254) rotate(121.065) scale(3.98312)">
<stop stop-color="#392108"/>
<stop offset="1" stop-color="#C87928" stop-opacity="0"/>
</radialGradient>
<radialGradient id="paint8_radial_31_1589" cx="0" cy="0" r="1" gradientUnits="userSpaceOnUse" gradientTransform="translate(10.0807 13.1509) rotate(68.8387) scale(3.7343)">
<stop offset="0.359039" stop-color="#C84E28"/>
<stop offset="1" stop-color="#C84528" stop-opacity="0"/>
</radialGradient>
<radialGradient id="paint9_radial_31_1589" cx="0" cy="0" r="1" gradientUnits="userSpaceOnUse" gradientTransform="translate(21.3218 12.6976) rotate(119.148) scale(4.2009)">
<stop offset="0.359039" stop-color="#C84E28"/>
<stop offset="1" stop-color="#C84528" stop-opacity="0"/>
</radialGradient>
<radialGradient id="paint10_radial_31_1589" cx="0" cy="0" r="1" gradientUnits="userSpaceOnUse" gradientTransform="translate(9.62088 12.2665) rotate(122.474) scale(4.91032)">
<stop offset="0.31498" stop-color="#392108"/>
<stop offset="1" stop-color="#C87928" stop-opacity="0"/>
</radialGradient>
<radialGradient id="paint11_radial_31_1589" cx="0" cy="0" r="1" gradientUnits="userSpaceOnUse" gradientTransform="translate(16 23.5252) rotate(-89.9998) scale(6.15216 8.2049)">
<stop offset="0.479167" stop-color="#5B2666"/>
<stop offset="0.686742" stop-color="#533A4E"/>
<stop offset="0.817708" stop-color="#534149"/>
<stop offset="0.959686" stop-color="#53261F"/>
</radialGradient>
<radialGradient id="paint12_radial_31_1589" cx="0" cy="0" r="1" gradientUnits="userSpaceOnUse" gradientTransform="translate(10.4445 22.7077) rotate(21.1902) scale(1.71436 1.58156)">
<stop stop-color="#52265D"/>
<stop offset="1" stop-color="#52265D" stop-opacity="0"/>
</radialGradient>
<radialGradient id="paint13_radial_31_1589" cx="0" cy="0" r="1" gradientUnits="userSpaceOnUse" gradientTransform="translate(8.99976 21.3927) rotate(30.1116) scale(1.07062 2.57488)">
<stop stop-color="#4E3130"/>
<stop offset="1" stop-color="#4E3130" stop-opacity="0"/>
</radialGradient>
<radialGradient id="paint14_radial_31_1589" cx="0" cy="0" r="1" gradientUnits="userSpaceOnUse" gradientTransform="translate(22.424 21.2538) rotate(137.342) scale(1.76295 1.75793)">
<stop stop-color="#694F5B"/>
<stop offset="1" stop-color="#59414E" stop-opacity="0"/>
</radialGradient>
<linearGradient id="paint15_linear_31_1589" x1="24.9444" y1="9.33333" x2="24.37" y2="14.0249" gradientUnits="userSpaceOnUse">
<stop stop-color="#553B3E"/>
<stop offset="1" stop-color="#3D2432"/>
</linearGradient>
<clipPath id="clip0_31_1589">
<rect width="32" height="32" fill="white"/>
</clipPath>
</defs>
</svg>
